<?xml version="1.0" encoding="UTF-8"?>
<svg xmlns="http://www.w3.org/2000/svg" xmlns:xlink="http://www.w3.org/1999/xlink" viewBox="0 0 48 48" width="48px" height="48px">
<g id="surface214490542">
<path style=" stroke:none;fill-rule:nonzero;fill:rgb(0%,46.666667%,83.137256%);fill-opacity:1;" d="M 7 6 L 22 6 C 22.550781 6 23 6.449219 23 7 L 23 22 C 23 22.550781 22.550781 23 22 23 L 7 23 C 6.449219 23 6 22.550781 6 22 L 6 7 C 6 6.449219 6.449219 6 7 6 Z M 7 6 "/>
<path style=" stroke:none;fill-rule:nonzero;fill:rgb(0%,46.666667%,83.137256%);fill-opacity:1;" d="M 25.042969 21.957031 L 25.042969 7 C 25.042969 6.449219 25.488281 6 26.042969 6 L 41 6 C 41.550781 6 42 6.449219 42 7 L 42 21.957031 C 42 22.511719 41.550781 22.957031 41 22.957031 L 26.042969 22.957031 C 25.488281 22.957031 25.042969 22.511719 25.042969 21.957031 Z M 25.042969 21.957031 "/>
<path style=" stroke:none;fill-rule:nonzero;fill:rgb(0%,46.666667%,83.137256%);fill-opacity:1;" d="M 7 25 L 22 25 C 22.550781 25 23 25.449219 23 26 L 23 41 C 23 41.550781 22.550781 42 22 42 L 7 42 C 6.449219 42 6 41.550781 6 41 L 6 26 C 6 25.449219 6.449219 25 7 25 Z M 7 25 "/>
<path style=" stroke:none;fill-rule:nonzero;fill:rgb(0%,46.666667%,83.137256%);fill-opacity:1;" d="M 25 41 L 25 26 C 25 25.449219 25.449219 25 26 25 L 41 25 C 41.550781 25 42 25.449219 42 26 L 42 41 C 42 41.550781 41.550781 42 41 42 L 26 42 C 25.449219 42 25 41.550781 25 41 Z M 25 41 "/>
</g>
</svg>
